<svg xmlns="http://www.w3.org/2000/svg" viewBox="0 0 48 48" fill="none">
  <rect width="48" height="48" rx="10" fill="#0C0C0C"/>
  <circle cx="24" cy="24" r="22" fill="#8B1F24" opacity="0.2"/>
  <path d="M10 28C10 20 16 14 24 14C30 14 35 18 36 24C32 22 28 21 24 21C18 21 13 24 10 28Z" fill="#F4F0E8"/>
  <path d="M24 14C30 14 35 18 36 24C34 20 30 17 24 17C20 17 16 19 14 22C16 17 20 14 24 14Z" fill="#F4F0E8" opacity="0.7"/>
  <path d="M36 24C38 26 39 29 38 32C35 30 32 28 28 27C32 26 35 25 36 24Z" fill="#8B1F24"/>
  <circle cx="20" cy="22" r="1.5" fill="#0C0C0C"/>
</svg>
