<svg xmlns="http://www.w3.org/2000/svg" viewBox="0 0 800 500" fill="none">
  <rect width="800" height="500" fill="#0C0C0C"/>
  <defs>
    <linearGradient id="street" x1="0" y1="0" x2="0" y2="1">
      <stop offset="0%" stop-color="#161616"/>
      <stop offset="100%" stop-color="#0C0C0C"/>
    </linearGradient>
    <radialGradient id="lamp" cx="50%" cy="0%" r="70%">
      <stop offset="0%" stop-color="#8B1F24" stop-opacity="0.55"/>
      <stop offset="100%" stop-color="#8B1F24" stop-opacity="0"/>
    </radialGradient>
  </defs>
  <rect width="800" height="500" fill="url(#street)"/>
  <rect x="0" y="320" width="800" height="180" fill="#1F1F1F"/>
  <rect x="0" y="318" width="800" height="4" fill="#8B1F24" opacity="0.4"/>
  <rect x="360" y="60" width="8" height="260" fill="#2A2A2A"/>
  <ellipse cx="364" cy="70" rx="90" ry="120" fill="url(#lamp)"/>
  <circle cx="364" cy="68" r="18" fill="#F4F0E8" opacity="0.9"/>
  <circle cx="364" cy="68" r="28" stroke="#8B1F24" stroke-width="2" opacity="0.6"/>
  <rect x="80" y="180" width="120" height="140" fill="#161616" stroke="#8A8580" stroke-width="1" opacity="0.6"/>
  <rect x="600" y="160" width="140" height="160" fill="#161616" stroke="#8A8580" stroke-width="1" opacity="0.6"/>
  <path d="M200 360 Q400 300 600 360" stroke="#8B1F24" stroke-width="2" fill="none" opacity="0.5"/>
  <ellipse cx="400" cy="390" rx="50" ry="12" fill="#0C0C0C" opacity="0.8"/>
  <rect x="370" y="300" width="60" height="90" rx="30" fill="#1F1F1F"/>
  <circle cx="400" cy="285" r="22" fill="#E8E2D6" opacity="0.85"/>
  <path d="M385 360 L400 330 L415 360" stroke="#8B1F24" stroke-width="2" fill="none"/>
</svg>
